# xmcd
#
# Track frame offsets:
#	150
#	18598
#	40723
#	56447
#	79392
#	114294
#	131689
#	150888
#	170276
#
# Disc length: 2748 seconds
#
# Revision: 1
# Processed by: cddbd v1.5.2PL0 Copyright (c) Steve Scherf et al.
# Submitted via: audiograbber 1.83.01
#
DISCID=620aba09
DTITLE=Mike Zito - Blue Room
DYEAR=1998
DGENRE=Blues
TTITLE0=Hollywood
TTITLE1=Pull The Trigger
TTITLE2=It's All Good
TTITLE3=Gravy Jam
TTITLE4=Lovering
TTITLE5=Shoes Blues
TTITLE6=Ways About You
TTITLE7=Soundcheck
TTITLE8=Lightening Bug
EXTD=YEAR: 1998 ID3G: 0
EXTT0=
EXTT1=
EXTT2=
EXTT3=
EXTT4=
EXTT5=
EXTT6=
EXTT7=
EXTT8=
PLAYORDER=
